# xmcd
#
# Track frame offsets: 
#        150
#        16624
#        33660
#        50514
#        84166
#        99712
#        115130
#        131297
#        150288
#        174179
#        190003
#        209527
#        223210
#        237382
#        257825
#        275337
#        300664
#        313782
#        340463
#
# Disc length: 4782 seconds
#
# Revision: 1
# Processed by: cddbd v1.5.2PL0 Copyright (c) Steve Scherf et al.
# Submitted via: ExactAudioCopy v1.3
#
DISCID=0212ac13
DTITLE=Various Artist - Akella Presents - vol.70 - Russia-Blues  CD2 
DTITLE=(com)
DYEAR=2016
DGENRE=Blues
TTITLE0=The Time Machine - C Major 
TTITLE1=Anatoly Jeimaev - A Beautiful life
TTITLE2=Ksenia Fedulova - Life Is Just A Habit
TTITLE3=Big Blues Revival - The Bells
TTITLE4=Evgeny Margulis - Don't Be So
TTITLE5=League of Blues - I'm Canceling Etiquette
TTITLE6=NikaDim - Bombila Blues
TTITLE7=Five Pennies - Problems
TTITLE8=Madera Hard Blues - Goodbye Brother
TTITLE9=Blues Cousins - Late Night Blues
TTITLE10=Crossroads - Alone Have The Buzz
TTITLE11=Alexander Dolgov - Mielopatia
TTITLE12=Krebs Cycle - Afraid
TTITLE13=Alexander Barykin - The Miracle Island
TTITLE14=Wild Honey - Fuck The Blues
TTITLE15=Asanbai - Lost
TTITLE16=Konstantin Nikolsky - The Cloud
TTITLE17=Yuri Antonov - If ... 
TTITLE18=Ksenia Fedulova - Outskirts Of The Wild Country Blues
EXTD=
EXTT0=
EXTT1=
EXTT2=
EXTT3=
EXTT4=
EXTT5=
EXTT6=
EXTT7=
EXTT8=
EXTT9=
EXTT10=
EXTT11=
EXTT12=
EXTT13=
EXTT14=
EXTT15=
EXTT16=
EXTT17=
EXTT18=
PLAYORDER=
